<?xml version="1.0" encoding="UTF-8" standalone="no"?>
<!-- Created with Inkscape (http://www.inkscape.org/) -->

<svg
   width="57.74741mm"
   height="59.146133mm"
   viewBox="0 0 57.74741 59.146132"
   version="1.1"
   id="svg1"
   xml:space="preserve"
   xmlns="http://www.w3.org/2000/svg"
   xmlns:svg="http://www.w3.org/2000/svg"><defs
     id="defs1" /><g
     id="layer1"
     transform="translate(2960.9945,-310.12114)"><path
       id="path3"
       style="fill:currentColor"class="fill-current"
       d="m -2258.0468,84.350977 -11.923,11.922984 a 2.1166505,2.1166505 89.999777 0 0 0,2.993407 l 26.8409,26.840442 a 2.1166522,2.1166522 89.999755 0 1 0,2.99341 l -26.8409,26.84093 a 2.1166692,2.1166692 89.999986 0 0 0,2.99342 l 11.923,11.92299 a 2.1166646,2.1166646 179.99999 0 0 2.9934,0 l 41.7573,-41.75734 a 2.1166573,2.1166573 89.999834 0 0 0,-2.99341 l -41.7573,-41.75684 a 2.1166774,2.1166774 179.99985 0 0 -2.9934,7e-6 z m 17.9114,-5.5e-5 11.9239,11.923094 a 5.1103514,5.1103514 22.498946 0 0 3.6135,1.496654 h 25.5994 a 0.87675214,0.87675214 112.5 0 0 0.62,-1.496709 l -11.923,-11.922984 a 5.110085,5.110085 22.500002 0 0 -3.6134,-1.496709 h -25.6005 a 0.87670642,0.87670642 112.49895 0 0 -0.6199,1.496654 z m -32.8278,29.833898 -11.923,11.92298 a 2.1167767,2.1167767 90.001488 0 0 -1e-4,2.9935 l 11.9232,11.92437 a 2.1164468,2.1164468 0 0 0 2.9932,0 l 11.9232,-11.92437 a 2.1167767,2.1167767 89.998512 0 0 -1e-4,-2.9935 l -11.923,-11.92298 a 2.1166667,2.1166667 0 0 0 -2.9934,0 z m 44.7506,44.75067 -11.9243,11.92315 a 0.87669013,0.87669013 67.501431 0 0 0.6199,1.49663 h 25.6009 a 5.1103495,5.1103495 157.50105 0 0 3.6135,-1.49665 l 11.9239,-11.92311 a 0.87670675,0.87670675 67.501047 0 0 -0.6199,-1.49665 h -25.6005 a 5.1104464,5.1104464 157.50143 0 0 -3.6135,1.49663 z"
       transform="matrix(0.6608438,0,0,0.6608438,-1450.6319,255.36737)" /></g></svg>
