<?xml version="1.0" encoding="UTF-8" standalone="no"?>
<!-- Created with Inkscape (http://www.inkscape.org/) -->

<svg
   fill="currentColor"
   width="130.34396mm"
   height="130.34396mm"
   viewBox="0 0 130.34397 130.34396"
   version="1.1"
   id="svg1"
   xml:space="preserve"
   sodipodi:docname="favicon.svg"
   inkscape:version="1.4.2 (ebf0e940d0, 2025-05-08)"
   xmlns:inkscape="http://www.inkscape.org/namespaces/inkscape"
   xmlns:sodipodi="http://sodipodi.sourceforge.net/DTD/sodipodi-0.dtd"
   xmlns="http://www.w3.org/2000/svg"
   xmlns:svg="http://www.w3.org/2000/svg"><sodipodi:namedview
     id="namedview1"
     pagecolor="#ffffff"
     bordercolor="#000000"
     borderopacity="0.25"
     inkscape:showpageshadow="2"
     inkscape:pageopacity="0.0"
     inkscape:pagecheckerboard="0"
     inkscape:deskcolor="#d1d1d1"
     inkscape:document-units="mm"
     inkscape:zoom="0.49529212"
     inkscape:cx="233.19572"
     inkscape:cy="370.48843"
     inkscape:window-width="1366"
     inkscape:window-height="740"
     inkscape:window-x="0"
     inkscape:window-y="0"
     inkscape:window-maximized="1"
     inkscape:current-layer="svg1" /><defs
     id="defs1" /><rect
     style="fill:#1d5bde;fill-opacity:1;stroke-width:0.240889"
     id="rect1"
     width="130.34396"
     height="130.34396"
     x="0"
     y="-130.34396"
     transform="scale(1,-1)" /><g
     id="layer2"
     style="display:inline;fill:#f0f2f5;fill-opacity:1"
     transform="translate(-209.33405,488.04354)"><path
       d="m 269.34632,-467.62206 a 0.87670642,0.87670642 0 0 0 -0.62012,1.49655 l 11.92434,11.9233 a 5.1103514,5.1103514 0 0 0 3.61321,1.49655 h 25.59947 a 0.87675214,0.87675214 0 0 0 0.62012,-1.49655 l -11.9233,-11.9233 a 5.110085,5.110085 0 0 0 -3.61322,-1.49655 z m -17.03462,0.87643 a 2.1166774,2.1166774 0 0 0 -1.49655,0.62012 l -11.9233,11.9233 a 2.1166505,2.1166505 0 0 0 0,2.9931 l 26.84125,26.84074 a 2.1166522,2.1166522 0 0 1 0,2.9931 l -26.84125,26.84125 a 2.1166692,2.1166692 0 0 0 0,2.9931 l 11.9233,11.9233 a 2.1166646,2.1166646 0 0 0 2.9931,0 l 41.75766,-41.75765 a 2.1166573,2.1166573 0 0 0 0,-2.9931 l -41.75766,-41.75714 a 2.1166774,2.1166774 0 0 0 -1.49655,-0.62012 z m 31.95102,73.70816 a 5.1104464,5.1104464 0 0 0 -3.61373,1.49655 l -11.92434,11.9233 a 0.87669013,0.87669013 0 0 0 0.62012,1.49655 h 25.60102 a 5.1103495,5.1103495 0 0 0 3.61322,-1.49655 l 11.92433,-11.9233 a 0.87670675,0.87670675 0 0 0 -0.62012,-1.49655 z"
       style="display:inline;fill:#f0f2f5;fill-opacity:1;stroke-width:0.748812;stroke-linecap:round;stroke-opacity:0.2;paint-order:stroke markers fill"
       id="path44" /></g></svg>
