<?xml version="1.0" encoding="UTF-8" standalone="no"?>
<!-- Created with Inkscape (http://www.inkscape.org/) -->

<svg
   width="665.07074"
   height="665.07074"
   viewBox="0 0 665.07076 665.07074"
   version="1.1"
   id="svg1"
   xml:space="preserve"
   inkscape:version="1.4.2 (ebf0e940d0, 2025-05-08)"
   sodipodi:docname="favicon.svg"
   inkscape:export-batch-path="Icons"
   inkscape:export-batch-name="batch"
   inkscape:export-filename="favicon.svg"
   inkscape:export-xdpi="96"
   inkscape:export-ydpi="96"
   xmlns:inkscape="http://www.inkscape.org/namespaces/inkscape"
   xmlns:sodipodi="http://sodipodi.sourceforge.net/DTD/sodipodi-0.dtd"
   xmlns="http://www.w3.org/2000/svg"
   xmlns:svg="http://www.w3.org/2000/svg"><sodipodi:namedview
     id="namedview1"
     pagecolor="#ffffff"
     bordercolor="#000000"
     borderopacity="0.25"
     inkscape:showpageshadow="2"
     inkscape:pageopacity="0.0"
     inkscape:pagecheckerboard="0"
     inkscape:deskcolor="#d1d1d1"
     inkscape:document-units="px"
     showgrid="false"
     showguides="false"
     inkscape:zoom="0.26528011"
     inkscape:cx="103.66401"
     inkscape:cy="1511.6097"
     inkscape:window-width="1366"
     inkscape:window-height="708"
     inkscape:window-x="0"
     inkscape:window-y="0"
     inkscape:window-maximized="1"
     inkscape:current-layer="g68"><inkscape:grid
       id="grid1"
       units="px"
       originx="-1496.04"
       originy="-1181.8487"
       spacingx="1"
       spacingy="1"
       empcolor="#0099e5"
       empopacity="0.30196078"
       color="#0099e5"
       opacity="0.14901961"
       empspacing="5"
       enabled="true"
       visible="false" /><sodipodi:guide
       position="-899.15897,1246.6418"
       orientation="0,-1"
       id="guide1"
       inkscape:locked="false" /><sodipodi:guide
       position="1801.6758,1237.5145"
       orientation="-0.92281727,0.38523796"
       id="guide3"
       inkscape:locked="false" /><sodipodi:guide
       position="-1010.3048,1299.0449"
       orientation="0,-1"
       id="guide5"
       inkscape:locked="false" /><sodipodi:guide
       position="-1027.086,1011.5568"
       orientation="0,-1"
       id="guide6"
       inkscape:locked="false" /><sodipodi:guide
       position="2296.368,1405.0654"
       orientation="0.92281741,-0.38523763"
       id="guide10"
       inkscape:locked="false" /><sodipodi:guide
       position="-762.37747,1156.6583"
       orientation="0,-1"
       id="guide11"
       inkscape:locked="false" /><sodipodi:guide
       position="-523.71457,1084.0158"
       orientation="0,-1"
       id="guide12"
       inkscape:locked="false" /><sodipodi:guide
       position="-1098.8221,1299.0449"
       orientation="1,0"
       id="guide14"
       inkscape:locked="false" /><sodipodi:guide
       position="3707.5527,-266.79148"
       orientation="0,-1"
       id="guide44"
       inkscape:locked="false" /><sodipodi:guide
       position="6925.4989,-3361.8828"
       orientation="0,-1"
       id="guide585"
       inkscape:locked="false" /><sodipodi:guide
       position="2724.1513,-8675.771"
       orientation="0,-1"
       id="guide61"
       inkscape:locked="false" /><sodipodi:guide
       position="3239.2773,-8327.638"
       orientation="0,-1"
       id="guide62"
       inkscape:locked="false" /><inkscape:page
       x="0"
       y="0"
       width="665.07074"
       height="665.07074"
       id="page2"
       margin="0"
       bleed="0" /></sodipodi:namedview><defs
     id="defs1"><linearGradient
       id="swatch527"
       inkscape:swatch="solid"><stop
         style="stop-color:#f0f2f5;stop-opacity:1;"
         offset="0"
         id="stop527" /></linearGradient></defs><g
     inkscape:label="Capa 1"
     inkscape:groupmode="layer"
     id="layer1"
     transform="translate(-1496.04,-1181.8488)"><g
       id="g68"
       transform="matrix(1.0290104,0,0,1.0290104,-1863.2986,-845.47807)"><g
         id="g69"><path
           id="rect66"
           style="vector-effect:none;fill:#1d5bde;stroke-width:24;stroke-linecap:round;stroke-linejoin:round;paint-order:stroke fill markers;stop-color:#000000"
           d="m 3587.7907,1970.1714 c 179.0309,0 323.1604,144.1295 323.1604,323.1604 0,179.0308 -144.1295,323.1603 -323.1604,323.1603 -179.0308,0 -323.1603,-144.1295 -323.1603,-323.1603 0,-179.0309 144.1295,-323.1604 323.1603,-323.1604 z" /><path
           style="baseline-shift:baseline;display:inline;overflow:visible;vector-effect:none;fill:#f0f2f5;stroke-linecap:round;stroke-linejoin:round;paint-order:stroke fill markers;enable-background:accumulate;stop-color:#000000"
           d="m 3491.0681,2130.5886 c -29.7805,0 -54.4786,11.0024 -70.793,28.1524 -16.3144,17.1499 -24.2969,39.6409 -24.4629,61.8984 -0.166,22.2575 7.4695,44.7722 23.4297,62 15.9602,17.2278 40.3583,28.3359 69.7031,28.3359 a 19,19 0 0 0 19,-19 19,19 0 0 0 -19,-19 c -20.2541,0 -33.0552,-6.6924 -41.8281,-16.1621 -8.7729,-9.4697 -13.4042,-22.5514 -13.3047,-35.8906 0.1,-13.3391 4.9137,-26.4446 13.9961,-35.9922 9.0824,-9.5475 22.3795,-16.3418 43.2598,-16.3418 24.8931,0 39.8951,8.5451 48.0761,27.5996 8.181,19.0546 8.2196,53.0071 -11.6816,101.8555 -17.9895,44.1561 -81.0137,127.4141 -81.0137,127.4141 a 19.0019,19.0019 0 0 0 29.5664,23.8593 c 22.5866,-26.8138 39.9712,-38.1984 52.5996,-41.9824 12.6284,-3.784 22.176,-1.6815 35.0157,4.3321 25.6793,12.027 58.2848,44.4082 108.1621,44.4082 a 19,19 0 0 0 19,-19 19,19 0 0 0 -19,-19 c -32.3773,0 -57.0645,-24.4371 -92.045,-40.8204 -13.5714,-6.3562 -29.6465,-10.7134 -46.873,-9.1718 11.7113,-18.8474 22.7186,-38.3722 29.7793,-55.7032 22.1517,-54.3723 25.5561,-98.2314 11.4082,-131.1836 -14.1479,-32.9521 -47.169,-50.6074 -82.9941,-50.6074 z m 229.252,0.7657 a 19.0019,19.0019 0 0 0 -9.2657,6.0722 c 0,0 -40.5451,45.5645 -86.8418,45.5645 a 19,19 0 0 0 -19,19 19,19 0 0 0 19,19 c 40.7136,0 73.2954,-20.3826 93.5352,-37.2559 6.5788,12.074 16.8553,25.0876 33.5234,34.711 a 19,19 0 0 0 25.9551,-6.9551 19,19 0 0 0 -6.9551,-25.9551 c -24.2688,-14.0116 -25.6797,-37.4648 -25.6797,-37.4648 a 19.0019,19.0019 0 0 0 -24.2714,-16.7168 z m -83.1446,141.621 a 19,19 0 0 0 -19,19 19,19 0 0 0 19,19 h 60.4942 l -11.6133,27.8204 a 19,19 0 0 0 10.2148,24.8515 19,19 0 0 0 24.8535,-10.2129 l 22.5996,-54.1406 a 19.0019,19.0019 0 0 0 -17.5332,-26.3184 z"
           id="path68" /></g></g></g></svg>
